# xmcd
#
# Track frame offsets:
#	150
#	17459
#	31546
#	41128
#	60193
#	81013
#	96594
#	112940
#	132263
#	150277
#	170051
#
# Disc length: 2524 seconds
#
# Revision: 0
# Processed by: cddbd v1.5.2PL0 Copyright (c) Steve Scherf et al.
# Submitted via: dBpowerAMP V4.0
#
DISCID=7709da0b
DTITLE=Messaline - Guerres Pudiques
DYEAR=2006
DGENRE=Heavy Metal
TTITLE0=Sardanapale
TTITLE1=Safari misère
TTITLE2=7 ans de malheur
TTITLE3=Le café du Paradis
TTITLE4=Les cailles au fenouil
TTITLE5=Soudard et ravachol
TTITLE6=Messaline
TTITLE7=Prisonnier du lacrymal
TTITLE8=Cheval de bataille
TTITLE9=French paradoxe
TTITLE10=Dernières sommations
EXTD=
EXTT0=
EXTT1=
EXTT2=
EXTT3=
EXTT4=
EXTT5=
EXTT6=
EXTT7=
EXTT8=
EXTT9=
EXTT10=
PLAYORDER=
